<svg width="174" height="120" viewBox="0 0 174 120" fill="none" xmlns="http://www.w3.org/2000/svg">
<rect width="174" height="120" rx="10" fill="#F8F005"/>
<rect x="16" y="16" width="151" height="93" rx="10" fill="#00E6F6"/>
<rect x="9" y="10" width="151" height="93" rx="10" fill="#FF013C"/>
<path d="M33.5924 54V41.4H37.8404V54H33.5924ZM39.8854 54V41.4H43.3774L49.7854 49.068H48.1654V41.4H52.3054V54H48.8134L42.4054 46.332H44.0254V54H39.8854ZM57.0882 54V44.694H53.3982V41.4H65.0262V44.694H61.3362V54H57.0882ZM70.0175 46.08H75.6335V49.14H70.0175V46.08ZM70.3055 50.796H76.6055V54H66.1295V41.4H76.3715V44.604H70.3055V50.796ZM78.2408 54V41.4H84.3068C85.4828 41.4 86.4968 41.592 87.3488 41.976C88.2128 42.36 88.8788 42.912 89.3468 43.632C89.8148 44.34 90.0488 45.18 90.0488 46.152C90.0488 47.124 89.8148 47.964 89.3468 48.672C88.8788 49.368 88.2128 49.902 87.3488 50.274C86.4968 50.646 85.4828 50.832 84.3068 50.832H80.5988L82.4888 49.086V54H78.2408ZM85.7828 54L82.6868 49.41H87.1868L90.3188 54H85.7828ZM82.4888 49.554L80.5988 47.628H84.0368C84.6248 47.628 85.0568 47.496 85.3328 47.232C85.6208 46.968 85.7648 46.608 85.7648 46.152C85.7648 45.696 85.6208 45.336 85.3328 45.072C85.0568 44.808 84.6248 44.676 84.0368 44.676H80.5988L82.4888 42.75V49.554ZM90.285 54L95.793 41.4H99.969L105.477 54H101.085L97.017 43.416H98.673L94.605 54H90.285ZM93.561 51.804L94.641 48.744H100.437L101.517 51.804H93.561ZM112.495 54.288C111.487 54.288 110.551 54.132 109.687 53.82C108.835 53.496 108.091 53.04 107.455 52.452C106.831 51.864 106.345 51.168 105.997 50.364C105.649 49.56 105.475 48.672 105.475 47.7C105.475 46.728 105.649 45.84 105.997 45.036C106.345 44.232 106.831 43.536 107.455 42.948C108.091 42.36 108.835 41.91 109.687 41.598C110.551 41.274 111.487 41.112 112.495 41.112C113.731 41.112 114.823 41.328 115.771 41.76C116.731 42.192 117.523 42.816 118.147 43.632L115.465 46.026C115.093 45.558 114.679 45.198 114.223 44.946C113.779 44.682 113.275 44.55 112.711 44.55C112.267 44.55 111.865 44.622 111.505 44.766C111.145 44.91 110.833 45.12 110.569 45.396C110.317 45.672 110.119 46.008 109.975 46.404C109.831 46.788 109.759 47.22 109.759 47.7C109.759 48.18 109.831 48.618 109.975 49.014C110.119 49.398 110.317 49.728 110.569 50.004C110.833 50.28 111.145 50.49 111.505 50.634C111.865 50.778 112.267 50.85 112.711 50.85C113.275 50.85 113.779 50.724 114.223 50.472C114.679 50.208 115.093 49.842 115.465 49.374L118.147 51.768C117.523 52.572 116.731 53.196 115.771 53.64C114.823 54.072 113.731 54.288 112.495 54.288ZM122.022 54V44.694H118.332V41.4H129.96V44.694H126.27V54H122.022ZM46.1546 76V66.694H42.4646V63.4H54.0926V66.694H50.4026V76H46.1546ZM61.6261 76.288C60.6061 76.288 59.6581 76.126 58.7821 75.802C57.9181 75.478 57.1681 75.022 56.5321 74.434C55.8961 73.834 55.3981 73.132 55.0381 72.328C54.6901 71.524 54.5161 70.648 54.5161 69.7C54.5161 68.74 54.6901 67.864 55.0381 67.072C55.3981 66.268 55.8961 65.572 56.5321 64.984C57.1681 64.384 57.9181 63.922 58.7821 63.598C59.6581 63.274 60.6061 63.112 61.6261 63.112C62.6581 63.112 63.6061 63.274 64.4701 63.598C65.3341 63.922 66.0841 64.384 66.7201 64.984C67.3561 65.572 67.8481 66.268 68.1961 67.072C68.5561 67.864 68.7361 68.74 68.7361 69.7C68.7361 70.648 68.5561 71.524 68.1961 72.328C67.8481 73.132 67.3561 73.834 66.7201 74.434C66.0841 75.022 65.3341 75.478 64.4701 75.802C63.6061 76.126 62.6581 76.288 61.6261 76.288ZM61.6261 72.85C62.0221 72.85 62.3881 72.778 62.7241 72.634C63.0721 72.49 63.3721 72.286 63.6241 72.022C63.8881 71.746 64.0921 71.416 64.2361 71.032C64.3801 70.636 64.4521 70.192 64.4521 69.7C64.4521 69.208 64.3801 68.77 64.2361 68.386C64.0921 67.99 63.8881 67.66 63.6241 67.396C63.3721 67.12 63.0721 66.91 62.7241 66.766C62.3881 66.622 62.0221 66.55 61.6261 66.55C61.2301 66.55 60.8581 66.622 60.5101 66.766C60.1741 66.91 59.8741 67.12 59.6101 67.396C59.3581 67.66 59.1601 67.99 59.0161 68.386C58.8721 68.77 58.8001 69.208 58.8001 69.7C58.8001 70.192 58.8721 70.636 59.0161 71.032C59.1601 71.416 59.3581 71.746 59.6101 72.022C59.8741 72.286 60.1741 72.49 60.5101 72.634C60.8581 72.778 61.2301 72.85 61.6261 72.85ZM75.6744 76V63.4H81.7404C82.9164 63.4 83.9304 63.592 84.7824 63.976C85.6464 64.36 86.3124 64.912 86.7804 65.632C87.2484 66.34 87.4824 67.18 87.4824 68.152C87.4824 69.124 87.2484 69.964 86.7804 70.672C86.3124 71.38 85.6464 71.932 84.7824 72.328C83.9304 72.712 82.9164 72.904 81.7404 72.904H78.0324L79.9224 71.086V76H75.6744ZM79.9224 71.554L78.0324 69.628H81.4704C82.0584 69.628 82.4904 69.496 82.7664 69.232C83.0544 68.968 83.1984 68.608 83.1984 68.152C83.1984 67.696 83.0544 67.336 82.7664 67.072C82.4904 66.808 82.0584 66.676 81.4704 66.676H78.0324L79.9224 64.75V71.554ZM88.8756 76V63.4H93.1236V72.706H98.8116V76H88.8756ZM98.7928 76L104.301 63.4H108.477L113.985 76H109.593L105.525 65.416H107.181L103.113 76H98.7928ZM102.069 73.804L103.149 70.744H108.945L110.025 73.804H102.069ZM117.094 76V70.474L118.066 73.012L112.342 63.4H116.824L120.694 69.97H118.084L121.99 63.4H126.094L120.406 73.012L121.342 70.474V76H117.094Z" fill="white"/>
</svg>
